<svg width="73" height="16" viewBox="0 0 73 16" fill="none" xmlns="http://www.w3.org/2000/svg">
<g clip-path="url(#clip0_224_186)">
<path d="M16.8006 7.15766V8.33917H14.502C11.4173 8.33917 8.90739 10.5955 8.90739 13.3854V15.3215H7.8172V13.3854C7.8172 10.6031 5.3157 8.33917 2.22262 8.33917H0V7.15766H2.22262C5.30725 7.15766 7.8172 4.90135 7.8172 2.11145V0.175293H8.90739V2.11145C8.90739 4.89372 11.4089 7.15766 14.502 7.15766H16.8006Z" fill="white"/>
<path d="M61.4474 0.0152588H57.129V15.4893H61.4474V0.0152588Z" fill="white"/>
<path d="M67.4477 7.62268L72.9493 13.0958V15.4893H69.9238L62.1066 7.66842L64.6926 4.80229L69.0196 0.0152588H72.9493L73 1.42545L67.473 7.58457L67.4477 7.62268Z" fill="white"/>
<path d="M39.3226 6.8223V15.4893H36.3563L34.9872 14.1019V2.36304L39.3226 6.8223Z" fill="white"/>
<path d="M54.7796 14.1477V15.4893H50.3175L49.1766 14.3459L42.2721 7.40923L36.5338 1.63887L34.9028 0H40.7086L50.4104 9.74939L54.7796 14.1477Z" fill="white"/>
<path d="M54.7796 0.0152588V14.1477L50.2667 9.7494H50.4526V0.0152588H54.7796Z" fill="white"/>
<path d="M32.6632 0.0152588H28.3447V15.4816H32.6632V0.0152588Z" fill="white"/>
</g>
<defs>
<clipPath id="clip0_224_186">
<rect width="73" height="15.4893" fill="white"/>
</clipPath>
</defs>
</svg>
