<svg width="33" height="50" viewBox="0 0 33 50" fill="none" xmlns="http://www.w3.org/2000/svg">
<g clip-path="url(#clip0_325_13451)">
<path d="M8.71156 24.7692C8.71156 21.0369 11.2291 18.2727 15.6601 17.1439V10.5433C5.76383 11.8892 0 17.6845 0 24.8077C0 31.9308 5.74502 37.7714 15.6578 39.1399V32.4239C11.2385 31.2861 8.70921 28.5197 8.70921 24.767L8.71156 24.7692Z" fill="white"/>
<path d="M33.2361 20.5598H33.9177V13.6832C31.2685 12.0862 27.3006 10.8579 23.2857 10.4213V16.7618C26.8446 17.2188 30.4952 18.533 33.2361 20.5575V20.5598Z" fill="white"/>
<path d="M34 29.0965H33.3183C30.5916 31.0645 27.0491 32.4013 23.288 32.8402V39.2915C27.2912 38.8843 31.2098 37.6945 34.0024 35.9346V29.0988L34 29.0965Z" fill="white"/>
<path d="M23.2857 10.4212V3.75601e-05H15.6601V10.5434C17.087 10.3488 18.5985 10.247 20.1922 10.247C21.2124 10.247 22.2514 10.3104 23.288 10.4235L23.2857 10.4212Z" fill="white"/>
<path d="M15.6578 39.1398V49.6922H23.2833V39.2891C22.2773 39.3909 21.2688 39.4475 20.2698 39.4475C18.6455 39.4475 17.1082 39.3411 15.6578 39.1398Z" fill="white"/>
</g>
<defs>
<clipPath id="clip0_325_13451">
<rect width="32.718" height="49.6923" fill="white"/>
</clipPath>
</defs>
</svg>
