<svg width="14" height="20" viewBox="0 0 14 20" fill="none" xmlns="http://www.w3.org/2000/svg">
<g clip-path="url(#clip0_325_14038)">
<path d="M3.5062 9.96904C3.5062 8.46685 4.51946 7.35432 6.30284 6.90003V4.24344C2.31981 4.78514 5.72205e-06 7.11762 5.72205e-06 9.98451C5.72205e-06 12.8514 2.31224 15.2021 6.30189 15.7529V13.0499C4.52325 12.5919 3.50526 11.4785 3.50526 9.96812L3.5062 9.96904Z" fill="white" fill-opacity="0.5"/>
<path d="M13.3767 8.27483H13.6511V5.50717C12.5849 4.86442 10.9879 4.37006 9.37195 4.19435V6.74624C10.8043 6.93015 12.2736 7.4591 13.3767 8.27392V8.27483Z" fill="white" fill-opacity="0.5"/>
<path d="M13.6842 11.7107H13.4098C12.3124 12.5027 10.8866 13.0408 9.3729 13.2174V15.8139C10.9841 15.65 12.5612 15.1711 13.6852 14.4628V11.7116L13.6842 11.7107Z" fill="white" fill-opacity="0.5"/>
<path d="M9.37195 4.19429V1.52588e-05H6.30285V4.24346C6.87712 4.16516 7.48545 4.12419 8.1269 4.12419C8.5375 4.12419 8.95567 4.14968 9.3729 4.19521L9.37195 4.19429Z" fill="white" fill-opacity="0.5"/>
<path d="M6.3019 15.7529V19.9999H9.371V15.8129C8.96608 15.8539 8.56021 15.8767 8.15812 15.8767C7.50437 15.8767 6.88563 15.8339 6.3019 15.7529Z" fill="white" fill-opacity="0.5"/>
</g>
<defs>
<clipPath id="clip0_325_14038">
<rect width="13.1682" height="20" fill="white"/>
</clipPath>
</defs>
</svg>
